# xmcd
#
# Track frame offsets:
#	150
#	3521
#	24168
#	33207
#	45130
#	65378
#	101546
#	113146
#	125614
#	150693
#	199654
#
# Disc length: 3179 seconds
#
# Revision: 1
# Processed by: cddbd v1.5.2PL0 Copyright (c) Steve Scherf et al.
# Submitted via: audiograbber 1.83.01
#
DISCID=7b0c690b
DTITLE=Grateful Dead - 78-04-21 Rupp Arena, Lexington KY
DYEAR=1900
DGENRE=
TTITLE0=Tuning
TTITLE1=Promised Land
TTITLE2=Dire Wolf
TTITLE3=Mama Tried
TTITLE4=Mexicali Blues
TTITLE5=Ramble On Rose
TTITLE6=Tuning and Stage Banter
TTITLE7=Funiculi Funicula
TTITLE8=Passenger
TTITLE9=Row Jimmy
TTITLE10=It's All Over Now
EXTD=
EXTT0=
EXTT1=
EXTT2=
EXTT3=
EXTT4=
EXTT5=
EXTT6=
EXTT7=
EXTT8=
EXTT9=
EXTT10=
PLAYORDER=
